<svg version="1.1" id="Layer_1" xmlns="http://www.w3.org/2000/svg" xmlns:xlink="http://www.w3.org/1999/xlink" x="0px" y="0px"
	 width="100%" viewBox="0 0 200 200" enable-background="new 0 0 200 200" xml:space="preserve">
<path fill="#CDEA92" opacity="1.000000" stroke="none" 
	d="
M130.000000,201.000000 
	C86.666672,201.000000 43.833340,201.000000 1.000006,201.000000 
	C1.000004,134.333344 1.000004,67.666679 1.000002,1.000015 
	C67.666656,1.000010 134.333313,1.000010 200.999969,1.000005 
	C200.999985,67.666649 200.999985,134.333298 201.000000,200.999969 
	C177.500000,201.000000 154.000000,201.000000 130.000000,201.000000 
M98.923454,138.497849 
	C98.923454,125.400063 98.923454,112.302277 98.923454,99.138290 
	C75.306648,99.138290 52.437004,99.138290 29.462486,99.138290 
	C29.462486,117.962212 29.462486,136.354584 29.462486,155.271729 
	C36.616554,155.271729 43.455608,155.735947 50.201035,155.140152 
	C56.843372,154.553467 61.670097,156.849365 65.957893,161.631973 
	C68.720619,164.713531 72.047058,167.289719 75.120850,170.092407 
	C75.507454,169.842728 75.894066,169.593063 76.280678,169.343384 
	C76.280678,164.780685 76.280678,160.217987 76.280678,155.038666 
	C84.057671,155.038666 91.285133,155.038666 98.923386,155.038666 
	C98.923386,149.434189 98.923386,144.465149 98.923454,138.497849 
M157.498398,155.242538 
	C161.493256,155.241898 165.503540,155.022781 169.478531,155.303528 
	C173.273331,155.571548 174.301071,154.095032 174.261597,150.436447 
	C174.092804,134.791702 174.087753,119.142967 174.263885,103.498390 
	C174.305817,99.774147 173.139786,98.640968 169.427933,98.669624 
	C149.454788,98.823837 129.479156,98.827354 109.506096,98.668007 
	C105.731720,98.637894 104.680901,99.893234 104.720016,103.552345 
	C104.887253,119.197121 104.894142,134.845871 104.716331,150.490402 
	C104.673889,154.224976 105.857430,155.354218 109.559868,155.313660 
	C125.204544,155.142273 140.852188,155.242249 157.498398,155.242538 
M56.958729,56.626972 
	C58.284550,55.013939 59.610374,53.400909 60.882076,51.853718 
	C55.516884,46.074665 44.769932,46.418350 39.644753,49.906437 
	C35.550858,52.692657 33.054131,56.335022 33.568886,61.607658 
	C34.063992,66.679031 37.619862,68.987419 41.669621,70.778465 
	C44.239441,71.914986 47.139687,72.386040 49.559711,73.746277 
	C50.832211,74.461525 52.042484,76.441460 52.053234,77.859627 
	C52.060963,78.879662 50.019684,80.803909 48.925003,80.780807 
	C45.309910,80.704506 41.709618,79.927078 37.278008,79.302414 
	C36.163261,80.534485 34.335281,82.554848 32.509319,84.572990 
	C39.325943,90.577370 50.633045,91.381439 56.958469,86.396179 
	C60.652866,83.484497 61.630032,79.256752 61.043324,74.719933 
	C60.482533,70.383537 58.245682,67.402870 53.839664,66.181938 
	C51.131340,65.431458 48.321545,64.717957 45.908745,63.362347 
	C44.608295,62.631702 43.152710,60.403912 43.398609,59.179153 
	C43.658943,57.882469 45.729778,56.366295 47.238781,56.054672 
	C49.021564,55.686520 51.046043,56.531181 52.972622,56.800961 
	C54.120918,56.961758 55.282421,57.028194 56.958729,56.626972 
M86.788261,53.276512 
	C79.887619,60.264484 78.963722,68.657310 82.299187,77.278572 
	C85.585396,85.772499 92.865555,89.518394 101.663292,89.553017 
	C107.410736,89.575638 113.247581,88.637436 116.680511,82.343521 
	C114.164810,80.604645 111.895599,79.036140 109.739235,77.545647 
	C104.661064,81.830971 98.032372,82.350288 94.383148,79.046555 
	C89.512543,74.637070 88.462654,66.036682 92.149391,60.748268 
	C96.072678,55.120548 101.673126,54.412117 109.844803,58.657841 
	C111.678688,56.961609 113.574364,55.208218 115.449615,53.473724 
	C108.702705,45.522408 97.720802,45.411324 86.788261,53.276512 
M162.930206,48.257084 
	C158.655823,47.962276 158.260361,51.857502 156.576279,54.266148 
	C154.651016,57.019745 152.993408,59.960464 150.975403,63.213322 
	C141.924759,46.997246 140.951813,46.293880 132.029022,49.244656 
	C135.931046,55.275875 139.392807,61.574173 143.773178,67.150909 
	C148.938934,73.727524 145.020309,81.420876 147.149429,88.114243 
	C150.105621,88.114243 152.821777,88.114243 155.797119,88.114243 
	C155.797119,84.999817 155.993805,82.325996 155.757080,79.691116 
	C155.227631,73.798210 156.558151,68.734108 160.390884,63.963169 
	C164.065948,59.388519 166.865234,54.110313 170.617966,48.254040 
	C167.612747,48.254040 165.686737,48.254040 162.930206,48.257084 
z"/>
<path fill="#2EABDE" opacity="1.000000" stroke="none" 
	d="
M98.923416,138.996979 
	C98.923386,144.465149 98.923386,149.434189 98.923386,155.038666 
	C91.285133,155.038666 84.057671,155.038666 76.280678,155.038666 
	C76.280678,160.217987 76.280678,164.780685 76.280678,169.343384 
	C75.894066,169.593063 75.507454,169.842728 75.120850,170.092407 
	C72.047058,167.289719 68.720619,164.713531 65.957893,161.631973 
	C61.670097,156.849365 56.843372,154.553467 50.201035,155.140152 
	C43.455608,155.735947 36.616554,155.271729 29.462486,155.271729 
	C29.462486,136.354584 29.462486,117.962212 29.462486,99.138290 
	C52.437004,99.138290 75.306648,99.138290 98.923454,99.138290 
	C98.923454,112.302277 98.923454,125.400063 98.923416,138.996979 
M42.733498,111.906998 
	C41.863548,112.626984 40.250179,113.333153 40.236507,114.069061 
	C40.064541,123.324188 40.123650,132.583603 40.123650,141.889359 
	C43.247147,141.889359 45.679020,141.889359 48.840111,141.889359 
	C48.840111,134.303436 48.840111,126.984329 48.840111,118.544418 
	C55.992310,125.198944 62.732620,130.474060 68.201706,136.841095 
	C73.587364,143.111038 79.821152,142.455322 86.740570,141.883469 
	C86.740570,131.817596 86.740570,122.090157 86.740570,112.295395 
	C83.927467,112.295395 81.404953,112.295395 78.512054,112.295395 
	C78.512054,116.164680 78.512054,119.640778 78.512054,123.116875 
	C78.512054,126.653442 78.512054,130.190002 78.512054,135.162231 
	C73.703178,130.657822 70.240150,127.148636 66.498367,123.967323 
	C59.802895,118.274727 54.833569,109.184265 42.733498,111.906998 
z"/>
<path fill="#38A678" opacity="1.000000" stroke="none" 
	d="
M156.998566,155.242767 
	C140.852188,155.242249 125.204544,155.142273 109.559868,155.313660 
	C105.857430,155.354218 104.673889,154.224976 104.716331,150.490402 
	C104.894142,134.845871 104.887253,119.197121 104.720016,103.552345 
	C104.680901,99.893234 105.731720,98.637894 109.506096,98.668007 
	C129.479156,98.827354 149.454788,98.823837 169.427933,98.669624 
	C173.139786,98.640968 174.305817,99.774147 174.263885,103.498390 
	C174.087753,119.142967 174.092804,134.791702 174.261597,150.436447 
	C174.301071,154.095032 173.273331,155.571548 169.478531,155.303528 
	C165.503540,155.022781 161.493256,155.241898 156.998566,155.242767 
M153.570999,123.907608 
	C151.964554,121.595917 150.293381,119.326149 148.763596,116.964790 
	C143.876099,109.420494 134.864349,109.210014 129.782364,116.550102 
	C126.192993,121.734360 122.590546,126.909561 118.989571,132.085770 
	C116.861412,135.144882 114.724777,138.198090 112.205795,141.807236 
	C117.654732,142.431396 121.975174,143.202286 124.499298,137.811417 
	C124.974945,136.795563 127.208420,136.152969 128.650620,136.116150 
	C135.464249,135.942184 142.288925,135.911362 149.099686,136.134521 
	C150.658478,136.185593 152.620590,137.055908 153.636505,138.215515 
	C157.501770,142.627441 158.920792,143.155472 165.720108,141.251114 
	C161.757538,135.590195 157.873001,130.040771 153.570999,123.907608 
z"/>
<path fill="#3F3355" opacity="1.000000" stroke="none" 
	d="
M56.698357,56.882015 
	C55.282421,57.028194 54.120918,56.961758 52.972622,56.800961 
	C51.046043,56.531181 49.021564,55.686520 47.238781,56.054672 
	C45.729778,56.366295 43.658943,57.882469 43.398609,59.179153 
	C43.152710,60.403912 44.608295,62.631702 45.908745,63.362347 
	C48.321545,64.717957 51.131340,65.431458 53.839664,66.181938 
	C58.245682,67.402870 60.482533,70.383537 61.043324,74.719933 
	C61.630032,79.256752 60.652866,83.484497 56.958469,86.396179 
	C50.633045,91.381439 39.325943,90.577370 32.509319,84.572990 
	C34.335281,82.554848 36.163261,80.534485 37.278008,79.302414 
	C41.709618,79.927078 45.309910,80.704506 48.925003,80.780807 
	C50.019684,80.803909 52.060963,78.879662 52.053234,77.859627 
	C52.042484,76.441460 50.832211,74.461525 49.559711,73.746277 
	C47.139687,72.386040 44.239441,71.914986 41.669621,70.778465 
	C37.619862,68.987419 34.063992,66.679031 33.568886,61.607658 
	C33.054131,56.335022 35.550858,52.692657 39.644753,49.906437 
	C44.769932,46.418350 55.516884,46.074665 60.882076,51.853718 
	C59.610374,53.400909 58.284550,55.013939 56.698357,56.882015 
z"/>
<path fill="#3E3255" opacity="1.000000" stroke="none" 
	d="
M87.053604,53.031212 
	C97.720802,45.411324 108.702705,45.522408 115.449615,53.473724 
	C113.574364,55.208218 111.678688,56.961609 109.844803,58.657841 
	C101.673126,54.412117 96.072678,55.120548 92.149391,60.748268 
	C88.462654,66.036682 89.512543,74.637070 94.383148,79.046555 
	C98.032372,82.350288 104.661064,81.830971 109.739235,77.545647 
	C111.895599,79.036140 114.164810,80.604645 116.680511,82.343521 
	C113.247581,88.637436 107.410736,89.575638 101.663292,89.553017 
	C92.865555,89.518394 85.585396,85.772499 82.299187,77.278572 
	C78.963722,68.657310 79.887619,60.264484 87.053604,53.031212 
z"/>
<path fill="#413656" opacity="1.000000" stroke="none" 
	d="
M163.345459,48.255562 
	C165.686737,48.254040 167.612747,48.254040 170.617966,48.254040 
	C166.865234,54.110313 164.065948,59.388519 160.390884,63.963169 
	C156.558151,68.734108 155.227631,73.798210 155.757080,79.691116 
	C155.993805,82.325996 155.797119,84.999817 155.797119,88.114243 
	C152.821777,88.114243 150.105621,88.114243 147.149429,88.114243 
	C145.020309,81.420876 148.938934,73.727524 143.773178,67.150909 
	C139.392807,61.574173 135.931046,55.275875 132.029022,49.244656 
	C140.951813,46.293880 141.924759,46.997246 150.975403,63.213322 
	C152.993408,59.960464 154.651016,57.019745 156.576279,54.266148 
	C158.260361,51.857502 158.655823,47.962276 163.345459,48.255562 
z"/>
<path fill="#F8FCFE" opacity="1.000000" stroke="none" 
	d="
M43.203453,111.901535 
	C54.833569,109.184265 59.802895,118.274727 66.498367,123.967323 
	C70.240150,127.148636 73.703178,130.657822 78.512054,135.162231 
	C78.512054,130.190002 78.512054,126.653442 78.512054,123.116875 
	C78.512054,119.640778 78.512054,116.164680 78.512054,112.295395 
	C81.404953,112.295395 83.927467,112.295395 86.740570,112.295395 
	C86.740570,122.090157 86.740570,131.817596 86.740570,141.883469 
	C79.821152,142.455322 73.587364,143.111038 68.201706,136.841095 
	C62.732620,130.474060 55.992310,125.198944 48.840111,118.544418 
	C48.840111,126.984329 48.840111,134.303436 48.840111,141.889359 
	C45.679020,141.889359 43.247147,141.889359 40.123650,141.889359 
	C40.123650,132.583603 40.064541,123.324188 40.236507,114.069061 
	C40.250179,113.333153 41.863548,112.626984 43.203453,111.901535 
z"/>
<path fill="#FBFDFC" opacity="1.000000" stroke="none" 
	d="
M153.779724,124.199478 
	C157.873001,130.040771 161.757538,135.590195 165.720108,141.251114 
	C158.920792,143.155472 157.501770,142.627441 153.636505,138.215515 
	C152.620590,137.055908 150.658478,136.185593 149.099686,136.134521 
	C142.288925,135.911362 135.464249,135.942184 128.650620,136.116150 
	C127.208420,136.152969 124.974945,136.795563 124.499298,137.811417 
	C121.975174,143.202286 117.654732,142.431396 112.205795,141.807236 
	C114.724777,138.198090 116.861412,135.144882 118.989571,132.085770 
	C122.590546,126.909561 126.192993,121.734360 129.782364,116.550102 
	C134.864349,109.210014 143.876099,109.420494 148.763596,116.964790 
	C150.293381,119.326149 151.964554,121.595917 153.779724,124.199478 
M133.866394,124.309669 
	C132.712906,125.971649 131.559418,127.633629 130.212357,129.574524 
	C136.282211,129.574524 141.495789,129.574524 147.526291,129.574524 
	C144.496719,125.152954 141.875046,121.326698 138.896072,116.978981 
	C137.033493,119.684258 135.646240,121.699150 133.866394,124.309669 
z"/>
<path fill="#45AB80" opacity="1.000000" stroke="none" 
	d="
M134.062683,124.011856 
	C135.646240,121.699150 137.033493,119.684258 138.896072,116.978981 
	C141.875046,121.326698 144.496719,125.152954 147.526291,129.574524 
	C141.495789,129.574524 136.282211,129.574524 130.212357,129.574524 
	C131.559418,127.633629 132.712906,125.971649 134.062683,124.011856 
z"/>
</svg>